<svg width="40" height="41" viewBox="0 0 40 41" fill="none" xmlns="http://www.w3.org/2000/svg">
<g filter="url(#filter0_d_12_2)">
<path d="M7.03114 28.75C6.47447 27.6621 7.67419 25.0056 10.0581 21.6806H7.72001C5.63089 24.939 4.78961 27.4652 5.72392 28.391C6.01488 28.679 6.45946 28.7929 7.03114 28.75Z" fill="white"/>
<path d="M32.1779 1.87402C31.5269 1.2296 30.1299 1.43123 28.2587 2.30517C31.7493 0.188781 34.4415 -0.589125 35.5137 0.471978C37.6672 2.60377 32.4674 11.3488 23.8994 20.0042C15.3315 28.6594 6.64006 33.9477 4.48631 31.8162C3.61722 30.9559 3.94582 29.0185 5.21003 26.4447L5.12018 26.7673C4.86368 27.7802 4.92539 28.5406 5.35753 28.9683C7.15058 30.7425 14.6076 26.1159 22.0135 18.6345C29.4198 11.1527 33.9707 3.64868 32.1779 1.87402Z" fill="white"/>
<path d="M31.4169 2.43696C30.494 1.52368 28.0279 2.3558 24.8508 4.41846V5.63776V6.85705C28.2128 4.45786 30.8284 3.36583 31.6998 4.22801C31.7072 4.23537 31.7137 4.24389 31.7209 4.25152C31.8788 3.42914 31.7893 2.80585 31.4169 2.43696Z" fill="white"/>
<path d="M23.9171 28.2159C23.9171 28.6743 23.5455 29.0458 23.0872 29.0458H15.7674C16.4791 28.5326 17.2114 27.9788 17.958 27.3861H22.2573V23.6864C22.8084 23.1772 23.3627 22.6527 23.9171 22.1126V28.2159ZM32.2159 19.9171L32.2118 20.0022C32.1721 20.3926 31.8615 20.7032 31.4711 20.743L31.386 20.747H25.2891C25.8335 20.1933 26.3637 19.6394 26.8792 19.0872H30.5561V14.8706C31.143 14.1464 31.697 13.4337 32.2159 12.7367V19.9171ZM23.9211 10.0436C23.9637 10.462 24.3173 10.7884 24.7469 10.7884H26.7949C26.3808 11.3317 25.9428 11.8859 25.482 12.4482H24.7469C23.3719 12.4482 22.2573 11.3335 22.2573 9.95855V4.14939H15.6182V9.95855C15.6182 11.3335 14.5036 12.4482 13.1286 12.4482H7.31943V19.0872H13.1286C14.5036 19.0872 15.6182 20.2019 15.6182 21.5769V22.4011C15.0558 22.8704 14.5018 23.317 13.9585 23.7383V21.5769L13.9544 21.4918C13.9147 21.1014 13.6041 20.7908 13.2137 20.7511L13.1286 20.747H6.48955C6.05994 20.747 5.70632 20.4206 5.66372 20.0022L5.65967 19.9171V11.6183C5.65967 11.16 6.03122 10.7884 6.48955 10.7884H13.1286C13.5582 10.7884 13.9118 10.462 13.9544 10.0436L13.9585 9.95855V3.31951C13.9585 2.86118 14.33 2.48962 14.7884 2.48962H23.0872L23.1723 2.49368C23.5627 2.53343 23.8732 2.84401 23.913 3.23441L23.9171 3.31951V9.95855L23.9211 10.0436Z" fill="white"/>
</g>
<defs>
<filter id="filter0_d_12_2" x="0" y="0" width="40" height="40.2882" filterUnits="userSpaceOnUse" color-interpolation-filters="sRGB">
<feFlood flood-opacity="0" result="BackgroundImageFix"/>
<feColorMatrix in="SourceAlpha" type="matrix" values="0 0 0 0 0 0 0 0 0 0 0 0 0 0 0 0 0 0 127 0" result="hardAlpha"/>
<feOffset dy="4"/>
<feGaussianBlur stdDeviation="2"/>
<feComposite in2="hardAlpha" operator="out"/>
<feColorMatrix type="matrix" values="0 0 0 0 0 0 0 0 0 0 0 0 0 0 0 0 0 0 0.25 0"/>
<feBlend mode="normal" in2="BackgroundImageFix" result="effect1_dropShadow_12_2"/>
<feBlend mode="normal" in="SourceGraphic" in2="effect1_dropShadow_12_2" result="shape"/>
</filter>
</defs>
</svg>
