<svg width="180" height="34" viewBox="0 0 180 34" fill="none" xmlns="http://www.w3.org/2000/svg">
<path d="M25.8717 2.42754C29.5944 0.198984 32.4657 -0.620376 33.6091 0.496903C35.9059 2.74171 30.3602 11.9504 21.2225 21.0646C12.085 30.1786 2.81554 35.7475 0.518595 33.503C-0.408212 32.597 -0.0577589 30.5569 1.29047 27.8466L1.19482 28.1862C0.921273 29.2528 0.986952 30.0537 1.44777 30.5042C3.3601 32.3723 11.3129 27.5005 19.2112 19.6226C27.1099 11.7442 31.9633 3.84217 30.0514 1.97343C29.3571 1.29495 27.8673 1.5073 25.8717 2.42754ZM21.2415 29.7118C21.2415 30.1944 20.8451 30.5858 20.3563 30.5858H12.5499C13.309 30.0454 14.09 29.462 14.8862 28.8378H19.4715V24.9423C20.0592 24.406 20.6503 23.8535 21.2415 23.2848V29.7118ZM6.46095 22.83C3.91864 26.3312 2.63898 29.1285 3.23248 30.2742C2.62288 30.3193 2.14865 30.1993 1.83838 29.8961C0.842176 28.9211 1.73944 26.2609 3.96736 22.83H6.46095ZM48.3687 4.50198C50.0505 4.50199 51.5685 4.78238 52.9226 5.34307C54.2985 5.88219 55.4671 6.65838 56.428 7.67188C57.4109 8.68546 58.1645 9.91485 58.6887 11.3597C59.2129 12.783 59.4752 14.3897 59.4752 16.1796C59.4752 17.9695 59.2129 19.5871 58.6887 21.032C58.1645 22.4769 57.4109 23.717 56.428 24.7521C55.467 25.7872 54.2986 26.585 52.9226 27.1457C51.5685 27.6849 50.0505 27.9546 48.3687 27.9546C46.6869 27.9546 45.1578 27.6849 43.7818 27.1457C42.4276 26.585 41.2589 25.7872 40.276 24.7521C39.315 23.717 38.5726 22.4769 38.0484 21.032C37.5242 19.5871 37.2619 17.9805 37.2619 16.2122C37.2619 14.4222 37.5242 12.8153 38.0484 11.392C38.5726 9.94719 39.3151 8.71799 40.276 7.70446C41.2589 6.66932 42.4276 5.88221 43.7818 5.34307C45.1578 4.78236 46.6869 4.50198 48.3687 4.50198ZM80.2714 14.1377C80.6542 13.4762 81.1998 12.9165 81.9095 12.4595C82.9142 11.8126 84.0827 11.4891 85.4149 11.4891C86.8346 11.4891 88.0689 11.8235 89.1173 12.4921C90.1657 13.1606 90.9849 14.1093 91.5746 15.3385C92.1643 16.5462 92.4591 18.0022 92.4591 19.7059C92.4591 21.3879 92.1643 22.8544 91.5746 24.1052C90.9849 25.3344 90.1549 26.2834 89.0846 26.9519C88.0362 27.6205 86.8128 27.9546 85.4149 27.9546C84.0608 27.9546 82.8704 27.6204 81.8438 26.9519C81.1021 26.4584 80.5458 25.8409 80.1731 25.1006V27.6311H76.1761V4.82545H80.2714V14.1377ZM109.25 11.8125H114.099V14.8534H109.25V21.5174C109.25 22.5524 109.479 23.3286 109.938 23.8462C110.396 24.3638 111.139 24.6228 112.166 24.6228C112.471 24.6228 112.788 24.5904 113.116 24.5257C113.443 24.4394 113.782 24.353 114.131 24.2667L114.754 27.2428C114.361 27.4585 113.858 27.631 113.247 27.7604C112.657 27.8898 112.078 27.9546 111.51 27.9546C109.37 27.9546 107.775 27.4262 106.727 26.3695C105.678 25.3128 105.154 23.7708 105.154 21.7438V14.8534H102.075V11.8125H105.154V7.08976H109.25V11.8125ZM127.262 4.56647C128.878 4.56647 130.353 4.82551 131.685 5.34307C133.017 5.83908 134.153 6.57212 135.092 7.54256L134.208 9.1925C133.203 8.22204 132.144 7.52107 131.03 7.08976C129.916 6.63692 128.671 6.41058 127.295 6.41057C124.587 6.41057 122.501 7.27312 121.037 8.99835C119.596 10.702 118.875 13.1067 118.875 16.2122C118.875 19.3176 119.596 21.733 121.037 23.4582C122.501 25.1834 124.587 26.046 127.295 26.046C128.671 26.046 129.916 25.8303 131.03 25.399C132.144 24.9462 133.203 24.2345 134.208 23.2641L135.092 24.9137C134.153 25.8841 133.017 26.6282 131.685 27.1457C130.353 27.6417 128.878 27.8898 127.262 27.8898C125.056 27.8897 123.167 27.4261 121.594 26.4988C120.022 25.5499 118.809 24.202 117.958 22.4552C117.128 20.7084 116.713 18.6274 116.713 16.2122C116.713 13.7968 117.128 11.7263 117.958 10.001C118.809 8.25423 120.022 6.91733 121.594 5.99002C123.167 5.04114 125.056 4.56649 127.262 4.56647ZM144.898 11.651C146.187 11.651 147.246 11.8666 148.076 12.2979C148.928 12.7292 149.55 13.3762 149.944 14.2387C150.359 15.1013 150.566 16.212 150.566 17.5705V27.6311H148.666V24.84C148.477 25.2712 148.237 25.6627 147.945 26.0137C147.443 26.6175 146.82 27.0812 146.078 27.4047C145.335 27.7282 144.505 27.8898 143.588 27.8898C142.517 27.8898 141.556 27.6851 140.704 27.2754C139.875 26.8657 139.208 26.3048 138.706 25.5932C138.226 24.8815 137.985 24.0834 137.985 23.1992C137.985 22.0348 138.28 21.1184 138.87 20.4499C139.459 19.7813 140.453 19.3174 141.851 19.0586C143.249 18.7782 145.171 18.638 147.617 18.638H148.633V17.4738C148.633 16.0289 148.338 14.9828 147.749 14.3358C147.159 13.6673 146.219 13.3331 144.931 13.3331C143.97 13.3332 143.042 13.4734 142.146 13.7537C141.273 14.034 140.366 14.476 139.427 15.0798L138.64 13.5595C139.208 13.1714 139.831 12.8369 140.508 12.5565C141.207 12.2762 141.928 12.0606 142.67 11.9096C143.435 11.7371 144.177 11.651 144.898 11.651ZM173.284 11.651C174.703 11.651 175.905 11.9637 176.888 12.5891C177.892 13.1929 178.657 14.0662 179.181 15.2092C179.727 16.3306 180 17.6894 180 19.2853V20.1909H167.786C167.824 21.4046 168.04 22.4507 168.435 23.3289C168.894 24.2777 169.57 25.0001 170.466 25.4961C171.361 25.9921 172.421 26.2401 173.644 26.2401C174.627 26.2401 175.544 26.0892 176.396 25.7873C177.27 25.4854 178.122 24.9784 178.951 24.2667L179.738 25.7548C179.039 26.4017 178.143 26.9195 177.051 27.3076C175.959 27.6958 174.845 27.8897 173.71 27.8898C172.072 27.8898 170.663 27.5663 169.483 26.9193C168.304 26.2724 167.397 25.345 166.764 24.1374C166.13 22.9298 165.814 21.4957 165.814 19.8352C165.814 18.1962 166.13 16.7729 166.764 15.5652C167.397 14.336 168.271 13.3763 169.385 12.6862C170.521 11.9961 171.82 11.651 173.284 11.651ZM73.8958 14.8212L71.5369 15.0476C70.2046 15.177 69.1998 15.5866 68.5227 16.2767C67.8456 16.9452 67.5069 17.8942 67.5069 19.1234V27.6311H63.3462V11.8125H67.3432V14.6155C67.6823 13.8106 68.1732 13.1673 68.8177 12.6862C69.7132 11.9961 70.9035 11.5969 72.3887 11.4891L73.6335 11.392L73.8958 14.8212ZM99.9162 27.6311H95.8209V11.8125H99.9162V27.6311ZM164.112 13.2683L162.703 13.4302C161.152 13.5812 159.951 14.0879 159.099 14.9505C158.248 15.8131 157.822 16.9778 157.822 18.4442V27.6311H155.79V11.9422H157.756V14.8001C158.165 13.932 158.721 13.2485 159.427 12.7507C160.366 12.1037 161.589 11.7265 163.096 11.6187L163.916 11.5539L164.112 13.2683ZM147.65 20.0938C146.187 20.0938 144.953 20.1369 143.948 20.2232C142.965 20.3094 142.19 20.4713 141.622 20.7085C141.054 20.9241 140.65 21.226 140.41 21.6141C140.191 22.0023 140.082 22.477 140.082 23.0377C140.082 24.0081 140.421 24.7952 141.098 25.399C141.775 26.0029 142.692 26.3049 143.85 26.305C144.789 26.305 145.608 26.089 146.307 25.6577C147.028 25.2048 147.596 24.5903 148.011 23.8139C148.426 23.0376 148.633 22.1533 148.633 21.1613V20.0938H147.65ZM20.4473 2.62597C20.8636 2.66788 21.1947 2.99486 21.2372 3.40585L21.2415 3.49536V10.4864L21.2458 10.5762C21.2913 11.0167 21.6686 11.3604 22.1267 11.3604H24.3107C23.8691 11.9324 23.4019 12.516 22.9106 13.1081H22.1267C20.6603 13.108 19.4715 11.9343 19.4715 10.4864V4.36936H12.391V10.4864C12.391 11.9343 11.2021 13.108 9.73574 13.1081H3.5401V20.0991H9.73574C11.2021 20.0991 12.3909 21.2729 12.391 22.7208V23.5888C11.7911 24.083 11.2001 24.5533 10.6206 24.9969V22.7208L10.6163 22.6313C10.5738 22.2202 10.2427 21.8929 9.82639 21.851L9.73574 21.8471H2.65524C2.19709 21.8471 1.81982 21.5031 1.77439 21.0626L1.77006 20.9731V12.2344C1.77008 11.7518 2.16648 11.3604 2.65524 11.3604H9.73574C10.1939 11.3604 10.5708 11.0167 10.6163 10.5762L10.6206 10.4864V3.49536C10.6207 3.01285 11.0171 2.62172 11.5058 2.62169H20.3563L20.4473 2.62597ZM84.2684 14.5622C83.0453 14.5622 82.0622 14.9935 81.3196 15.8561C80.577 16.6972 80.2058 17.9806 80.2058 19.7059C80.2058 21.4094 80.577 22.7034 81.3196 23.5875C82.0622 24.4502 83.0453 24.8814 84.2684 24.8814C85.4915 24.8814 86.4744 24.4501 87.217 23.5875C87.9596 22.7034 88.3311 21.4095 88.3311 19.7059C88.3311 17.9806 87.9596 16.6972 87.217 15.8561C86.4744 14.9936 85.4915 14.5622 84.2684 14.5622ZM48.3687 8.06018C46.9708 8.06018 45.7694 8.38363 44.7646 9.0306C43.76 9.65598 42.9847 10.5834 42.4387 11.8125C41.9145 13.0202 41.6521 14.4869 41.6521 16.2122C41.6522 17.9158 41.9145 19.3822 42.4387 20.6115C42.9847 21.8406 43.76 22.7787 44.7646 23.4256C45.7694 24.0726 46.9708 24.3964 48.3687 24.3964C49.7884 24.3964 50.9896 24.0726 51.9724 23.4256C52.9771 22.7787 53.7415 21.8407 54.2657 20.6115C54.8118 19.3822 55.0849 17.9158 55.0849 16.2122C55.0849 14.4869 54.8229 13.0202 54.2987 11.8125C53.7745 10.5833 53.0098 9.656 52.0051 9.0306C51.0004 8.38369 49.7883 8.0602 48.3687 8.06018ZM30.092 20.9731L30.0877 21.0626C30.0453 21.4737 29.7142 21.8009 29.2978 21.8428L29.2069 21.8471H22.7046C23.2851 21.2641 23.8509 20.6806 24.4007 20.0991H28.322V15.659C28.9478 14.8965 29.5388 14.146 30.092 13.4121V20.9731ZM173.316 13.2361C172.115 13.2361 171.1 13.5165 170.27 14.0772C169.44 14.6163 168.817 15.371 168.402 16.3415C168.09 17.0542 167.896 17.8521 167.818 18.7351H178.223C178.164 17.0813 177.752 15.7767 176.986 14.8212C176.156 13.7645 174.933 13.2361 173.316 13.2361ZM100.145 8.4159H95.5586V4.4694H100.145V8.4159ZM22.2373 4.65269C25.6256 2.48071 28.2558 1.60445 29.2402 2.56608C29.6372 2.95451 29.7326 3.61102 29.5641 4.47697C29.5566 4.46899 29.5497 4.45999 29.5418 4.45229C28.6124 3.54448 25.8228 4.69439 22.2373 7.22073V4.65269Z" fill="white   "/>
</svg>
