<svg width="180" height="34" viewBox="0 0 180 34" fill="none" xmlns="http://www.w3.org/2000/svg">
<path d="M106.342 2.42753C110.04 0.199022 112.893 -0.620381 114.029 0.496889C116.311 2.74181 110.801 11.9505 101.723 21.0646C92.6441 30.1786 83.4345 35.7473 81.1523 33.503C80.2315 32.5971 80.5797 30.5569 81.9192 27.8467L81.8242 28.1863C81.5524 29.2529 81.6177 30.0538 82.0755 30.5042C83.9756 32.3722 91.877 27.5005 99.7242 19.6226C107.572 11.7443 112.394 3.84228 110.494 1.97342C109.805 1.29495 108.324 1.50734 106.342 2.42753ZM101.741 29.7119C101.741 30.1944 101.347 30.5858 100.862 30.5859H93.106C93.86 30.0455 94.6361 29.462 95.4272 28.8378H99.9828V24.9423C100.567 24.4061 101.154 23.8535 101.741 23.2848V29.7119ZM87.0563 22.8301C84.5304 26.3312 83.259 29.1285 83.8487 30.2742C83.2431 30.3193 82.7718 30.1993 82.4636 29.8961C81.4738 28.9212 82.3653 26.2609 84.5788 22.8301H87.0563ZM128.495 4.71751C130.101 4.71753 131.555 4.97655 132.857 5.49411C134.181 6.01169 135.309 6.77712 136.242 7.79068L135.526 8.923C134.506 7.90945 133.432 7.17606 132.304 6.72318C131.175 6.27032 129.895 6.044 128.463 6.04398C125.663 6.04399 123.504 6.9497 121.985 8.7611C120.488 10.5511 119.739 13.0852 119.739 16.3632C119.739 19.6412 120.488 22.1858 121.985 23.9973C123.504 25.8087 125.663 26.7147 128.463 26.7147C129.895 26.7147 131.175 26.4884 132.304 26.0355C133.432 25.5826 134.506 24.8492 135.526 23.8357L136.242 24.968C135.309 25.9815 134.181 26.747 132.857 27.2646C131.555 27.7821 130.101 28.0408 128.495 28.0408C126.347 28.0408 124.513 27.5771 122.994 26.6499C121.475 25.701 120.303 24.3531 119.478 22.6063C118.676 20.8595 118.274 18.7785 118.274 16.3632C118.274 13.9478 118.676 11.8773 119.478 10.1521C120.303 8.40532 121.475 7.06836 122.994 6.14106C124.513 5.19224 126.347 4.71753 128.495 4.71751ZM146.084 11.8665C147.277 11.8665 148.265 12.0715 149.046 12.4812C149.827 12.891 150.402 13.5165 150.771 14.3576C151.162 15.1986 151.357 16.2769 151.357 17.5923V27.7822H150.023V24.9006C149.823 25.3397 149.574 25.7396 149.274 26.1C148.753 26.7254 148.113 27.2108 147.353 27.5558C146.616 27.8792 145.78 28.0408 144.847 28.0408C143.827 28.0408 142.905 27.8362 142.08 27.4265C141.256 27.0167 140.605 26.4666 140.127 25.7765C139.65 25.0649 139.411 24.2778 139.411 23.4151C139.411 22.2506 139.693 21.3447 140.257 20.6977C140.843 20.0293 141.831 19.5655 143.22 19.3067C144.63 19.0264 146.562 18.8862 149.014 18.8862H149.99V17.5923C149.99 16.0396 149.686 14.9073 149.078 14.1956C148.471 13.4841 147.494 13.1282 146.149 13.1282C145.173 13.1282 144.25 13.2684 143.382 13.5487C142.536 13.829 141.646 14.2821 140.713 14.9074L140.062 13.7429C140.626 13.3547 141.234 13.0205 141.885 12.7402C142.557 12.4599 143.252 12.2442 143.968 12.0932C144.684 11.9423 145.389 11.8665 146.084 11.8665ZM173.555 11.8665C174.922 11.8666 176.083 12.1686 177.038 12.7724C177.993 13.3763 178.72 14.2389 179.219 15.3602C179.74 16.4601 180 17.7973 180 19.3716V20.2127H167.665C167.686 21.5529 167.924 22.7066 168.379 23.6738C168.857 24.6873 169.551 25.4638 170.463 26.0029C171.396 26.5205 172.503 26.7795 173.783 26.7795C174.759 26.7795 175.671 26.6283 176.517 26.3264C177.385 26.0029 178.242 25.4745 179.088 24.7413L179.739 25.8414C179.067 26.5098 178.199 27.049 177.135 27.4587C176.072 27.8469 174.976 28.0408 173.848 28.0408C172.285 28.0408 170.94 27.7173 169.812 27.0704C168.683 26.4235 167.804 25.5068 167.175 24.3207C166.567 23.1131 166.264 21.679 166.264 20.0185C166.264 18.3795 166.567 16.9562 167.175 15.7485C167.804 14.5193 168.661 13.5703 169.746 12.9018C170.853 12.2117 172.123 11.8665 173.555 11.8665ZM11.0348 4.50197C12.7057 4.50197 14.2138 4.78237 15.5593 5.34307C16.9264 5.8822 18.0876 6.65831 19.0424 7.67188C20.0189 8.68547 20.7676 9.91484 21.2884 11.3597C21.8092 12.7831 22.0695 14.3897 22.0695 16.1796C22.0695 17.9696 21.8092 19.5871 21.2884 21.032C20.7676 22.4769 20.0189 23.717 19.0424 24.7521C18.0876 25.7873 16.9264 26.5851 15.5593 27.1458C14.2138 27.6849 12.7057 27.9546 11.0348 27.9546C9.36382 27.9546 7.84462 27.6849 6.47748 27.1458C5.13213 26.5851 3.97118 25.7872 2.9947 24.7521C2.03987 23.717 1.30194 22.4769 0.781126 21.032C0.260326 19.5872 1.04739e-05 17.9805 0 16.2122C0 14.4222 0.26031 12.8153 0.781126 11.392C1.30193 9.94714 2.03991 8.71803 2.9947 7.70446C3.97118 6.66935 5.13213 5.88221 6.47748 5.34307C7.84462 4.78236 9.36382 4.50197 11.0348 4.50197ZM42.7315 14.1384C43.1118 13.4767 43.6536 12.9166 44.3589 12.4595C45.3572 11.8125 46.5183 11.4891 47.8421 11.4891C49.2526 11.4891 50.4786 11.8235 51.5202 12.4921C52.5618 13.1606 53.3757 14.1093 53.9616 15.3385C54.5475 16.5462 54.8404 18.0022 54.8404 19.7059C54.8404 21.388 54.5475 22.8544 53.9616 24.1052C53.3757 25.3344 52.5511 26.2834 51.4877 26.952C50.4461 27.6205 49.2309 27.9546 47.8421 27.9546C46.4967 27.9546 45.314 27.6205 44.294 26.952C43.557 26.4584 43.0041 25.8408 42.6338 25.1003V27.6312H38.6626V4.82545H42.7315V14.1384ZM71.5225 11.8125H76.3401V14.8535H71.5225V21.5174C71.5225 22.5525 71.7506 23.3287 72.2063 23.8462C72.662 24.3638 73.3997 24.6228 74.4195 24.6228C74.7233 24.6228 75.0381 24.5904 75.3636 24.5257C75.6891 24.4395 76.0256 24.353 76.3728 24.2668L76.9911 27.2429C76.6005 27.4585 76.1013 27.6311 75.4937 27.7605C74.9078 27.8899 74.3327 27.9546 73.7685 27.9546C71.6419 27.9546 70.0578 27.4262 69.0162 26.3695C67.9746 25.3128 67.4537 23.7709 67.4536 21.7438V14.8535H64.394V11.8125H67.4536V7.08976H71.5225V11.8125ZM164.399 12.9666L163.293 13.0959C161.687 13.2469 160.428 13.786 159.517 14.7133C158.627 15.6406 158.182 16.87 158.182 18.4011V27.7822H156.815V12.1255H158.15V14.9841C158.574 14.1048 159.148 13.421 159.875 12.934C160.808 12.2871 162.034 11.9098 163.553 11.802L164.237 11.7372L164.399 12.9666ZM36.397 14.8212L34.0533 15.0476C32.7296 15.177 31.7313 15.5866 31.0586 16.2767C30.3859 16.9452 30.0497 17.8942 30.0497 19.1234V27.6312H25.9156V11.8125H29.8868V14.6162C30.2236 13.811 30.7113 13.1674 31.3517 12.6862C32.2414 11.9961 33.424 11.5969 34.8997 11.4891L36.1368 11.392L36.397 14.8212ZM62.2493 27.6312H58.1805V11.8125H62.2493V27.6312ZM149.078 20.0833C147.473 20.0833 146.138 20.1371 145.075 20.2449C144.012 20.3312 143.176 20.5038 142.568 20.7625C141.961 20.9997 141.527 21.3233 141.266 21.7329C141.028 22.1427 140.908 22.6604 140.908 23.2858C140.908 24.3209 141.266 25.1728 141.982 25.8414C142.72 26.4883 143.708 26.8118 144.945 26.8118C145.943 26.8117 146.811 26.5744 147.549 26.1C148.308 25.604 148.905 24.9463 149.339 24.1269C149.773 23.2859 149.99 22.3368 149.99 21.2801V20.0833H149.078ZM100.952 2.62596C101.366 2.66794 101.695 2.99488 101.737 3.40585L101.741 3.49535V10.4864L101.746 10.5762C101.791 11.0167 102.166 11.3604 102.621 11.3604H104.791C104.352 11.9324 103.888 12.5161 103.4 13.1081H102.621C101.164 13.1081 99.9828 11.9343 99.9828 10.4864V4.36936H92.948V10.4864C92.948 11.9342 91.7668 13.108 90.3099 13.1081H84.1543V20.0991H90.3099C91.7668 20.0992 92.948 21.273 92.948 22.7208V23.5889C92.3521 24.083 91.7648 24.5533 91.1891 24.997V22.7208L91.1848 22.6313C91.1427 22.2203 90.8136 21.893 90.4 21.8511L90.3099 21.8471H83.2752C82.82 21.8471 82.4451 21.5032 82.4 21.0626L82.3957 20.9731V12.2344C82.3957 11.7518 82.7895 11.3604 83.2752 11.3604H90.3099C90.765 11.3603 91.1396 11.0167 91.1848 10.5762L91.1891 10.4864V3.49535C91.1892 3.01281 91.583 2.62169 92.0685 2.62168H100.862L100.952 2.62596ZM46.7026 14.5622C45.4875 14.5623 44.511 14.9936 43.7732 15.8561C43.0354 16.6972 42.6666 17.9806 42.6666 19.7059C42.6666 21.4095 43.0354 22.7034 43.7732 23.5876C44.511 24.4502 45.4875 24.8814 46.7026 24.8815C47.9179 24.8815 48.8946 24.4502 49.6325 23.5876C50.3702 22.7034 50.7391 21.4095 50.7391 19.7059C50.7391 17.9806 50.3703 16.6972 49.6325 15.8561C48.8946 14.9935 47.9179 14.5622 46.7026 14.5622ZM11.0348 8.06018C9.64599 8.06018 8.45251 8.38368 7.4543 9.0306C6.4561 9.656 5.68556 10.5833 5.14305 11.8125C4.62223 13.0202 4.36192 14.4869 4.36192 16.2122C4.36193 17.9158 4.62224 19.3823 5.14305 20.6115C5.68556 21.8407 6.45607 22.7787 7.4543 23.4257C8.45253 24.0726 9.64594 24.3964 11.0348 24.3964C12.4453 24.3964 13.639 24.0726 14.6156 23.4257C15.6137 22.7787 16.3733 21.8407 16.894 20.6115C17.4365 19.3823 17.7076 17.9158 17.7076 16.2122C17.7076 14.4869 17.4473 13.0202 16.9265 11.8125C16.4057 10.5833 15.6462 9.65599 14.648 9.0306C13.6498 8.38363 12.4453 8.06018 11.0348 8.06018ZM110.535 20.9731L110.53 21.0626C110.488 21.4737 110.159 21.8009 109.746 21.8429L109.655 21.8471H103.195C103.772 21.2641 104.334 20.6806 104.88 20.0991H108.776V15.659C109.398 14.8965 109.985 14.146 110.535 13.4121V20.9731ZM173.522 13.0959C172.264 13.0959 171.189 13.3981 170.3 14.0018C169.432 14.5841 168.77 15.382 168.314 16.3955C167.977 17.1841 167.771 18.0575 167.696 19.0158H178.725C178.67 17.2372 178.238 15.8245 177.428 14.7781C176.56 13.6567 175.258 13.0959 173.522 13.0959ZM62.4772 8.4159H57.9202V4.46939H62.4772V8.4159ZM102.731 4.65269C106.097 2.48076 108.71 1.60445 109.688 2.56607C110.083 2.95451 110.178 3.6111 110.01 4.47696C110.003 4.46901 109.996 4.45997 109.988 4.45228C109.065 3.54448 106.293 4.69444 102.731 7.22073V4.65269Z" fill="white"/>
</svg>
