<svg width="31" height="36" viewBox="0 0 31 36" fill="none" xmlns="http://www.w3.org/2000/svg">
<path d="M26.4412 15.3C26.4412 21.2647 21.5426 26.1 15.5 26.1C9.45736 26.1 4.55882 21.2647 4.55882 15.3C4.55882 9.33532 9.45736 4.5 15.5 4.5C21.5426 4.5 26.4412 9.33532 26.4412 15.3Z" fill="white"/>
<path d="M14.2235 9.97826V8.72609C14.2235 8.5487 14.2847 8.4 14.407 8.28C14.5294 8.16 14.6809 8.1 14.8618 8.1C15.0426 8.1 15.1942 8.16 15.3165 8.28C15.4388 8.4 15.5 8.5487 15.5 8.72609V9.97826C15.5 10.1557 15.4388 10.3043 15.3165 10.4243C15.1942 10.5443 15.0426 10.6043 14.8618 10.6043C14.6809 10.6043 14.5294 10.5443 14.407 10.4243C14.2847 10.3043 14.2235 10.1557 14.2235 9.97826ZM10.9526 11.0426L9.94735 10.0565C9.81971 9.9313 9.75588 9.78261 9.75588 9.61043C9.75588 9.43826 9.81971 9.28956 9.94735 9.16435C10.075 9.03913 10.2239 8.97652 10.3941 8.97652C10.5643 8.97652 10.7132 9.03913 10.8409 9.16435L11.8621 10.1661C11.9897 10.2913 12.0535 10.4374 12.0535 10.6043C12.0535 10.7713 11.9897 10.9174 11.8621 11.0426C11.7344 11.1678 11.5828 11.2304 11.4073 11.2304C11.2318 11.2304 11.0802 11.1678 10.9526 11.0426ZM9.11765 17.0843C9.11765 17.0113 9.12297 16.9383 9.1336 16.8652C9.14424 16.7922 9.1602 16.7243 9.18147 16.6617L10.4579 13.1087C10.5218 12.9209 10.6361 12.7696 10.801 12.6548C10.9659 12.54 11.1494 12.4826 11.3515 12.4826H12.9471V11.8565C12.9471 11.6791 13.0082 11.5304 13.1306 11.4104C13.2529 11.2904 13.4045 11.2304 13.5853 11.2304H14.3831C14.532 11.2304 14.641 11.2904 14.7102 11.4104C14.7793 11.5304 14.7767 11.653 14.7022 11.7783C14.5746 12.0183 14.4708 12.2713 14.3911 12.5374C14.3113 12.8035 14.2608 13.0774 14.2395 13.3591C14.2288 13.4635 14.1863 13.5522 14.1118 13.6252C14.0374 13.6983 13.947 13.7348 13.8406 13.7348H11.5749L10.6335 16.2391H15.516C15.6968 16.2391 15.8484 16.2991 15.9707 16.4191C16.093 16.5391 16.1542 16.6878 16.1542 16.8652C16.1542 17.0426 16.093 17.1913 15.9707 17.3113C15.8484 17.4313 15.6968 17.4913 15.516 17.4913H10.3941V19.9957H19.3294V18.7435C19.3294 18.5661 19.3906 18.4174 19.5129 18.2974C19.6352 18.1774 19.7868 18.1174 19.9676 18.1174C20.1485 18.1174 20.3001 18.1774 20.4224 18.2974C20.5447 18.4174 20.6059 18.5661 20.6059 18.7435V21.5609C20.6059 21.8217 20.5128 22.0435 20.3267 22.2261C20.1405 22.4087 19.9145 22.5 19.6485 22.5C19.3826 22.5 19.1566 22.4087 18.9704 22.2261C18.7843 22.0435 18.6912 21.8217 18.6912 21.5609V21.2478H11.0324V21.5609C11.0324 21.8217 10.9393 22.0435 10.7531 22.2261C10.567 22.4087 10.3409 22.5 10.075 22.5C9.80907 22.5 9.58303 22.4087 9.39687 22.2261C9.21072 22.0435 9.11765 21.8217 9.11765 21.5609V17.0843ZM12.9471 19.3696C13.1279 19.3696 13.2795 19.3096 13.4018 19.1896C13.5241 19.0696 13.5853 18.9209 13.5853 18.7435C13.5853 18.5661 13.5241 18.4174 13.4018 18.2974C13.2795 18.1774 13.1279 18.1174 12.9471 18.1174H11.6706C11.4898 18.1174 11.3382 18.1774 11.2158 18.2974C11.0935 18.4174 11.0324 18.5661 11.0324 18.7435C11.0324 18.9209 11.0935 19.0696 11.2158 19.1896C11.3382 19.3096 11.4898 19.3696 11.6706 19.3696H12.9471ZM16.7765 19.3696H18.0529C18.2338 19.3696 18.3854 19.3096 18.5077 19.1896C18.63 19.0696 18.6912 18.9209 18.6912 18.7435C18.6912 18.5661 18.63 18.4174 18.5077 18.2974C18.3854 18.1774 18.2338 18.1174 18.0529 18.1174H16.7765C16.5956 18.1174 16.4441 18.1774 16.3217 18.2974C16.1994 18.4174 16.1382 18.5661 16.1382 18.7435C16.1382 18.9209 16.1994 19.0696 16.3217 19.1896C16.4441 19.3096 16.5956 19.3696 16.7765 19.3696ZM18.2285 13.813L17.9412 13.5313C17.8455 13.4374 17.7338 13.393 17.6062 13.3983C17.4785 13.4035 17.3668 13.453 17.2711 13.547C17.1754 13.6409 17.1275 13.7504 17.1275 13.8757C17.1275 14.0009 17.1754 14.1104 17.2711 14.2043L17.7817 14.7052C17.9093 14.8304 18.0583 14.893 18.2285 14.893C18.3987 14.893 18.5476 14.8304 18.6752 14.7052L20.1112 13.3122C20.207 13.2183 20.2549 13.1087 20.2549 12.9835C20.2549 12.8583 20.207 12.7487 20.1112 12.6548C20.0155 12.5609 19.9038 12.5165 19.7762 12.5217C19.6485 12.527 19.5368 12.5713 19.4411 12.6548L18.2285 13.813ZM20.9489 11.52C21.5712 12.1304 21.8824 12.8687 21.8824 13.7348C21.8824 14.6009 21.5712 15.3391 20.9489 15.9496C20.3267 16.56 19.5741 16.8652 18.6912 16.8652C17.8083 16.8652 17.0557 16.56 16.4334 15.9496C15.8111 15.3391 15.5 14.6009 15.5 13.7348C15.5 12.8687 15.8111 12.1304 16.4334 11.52C17.0557 10.9096 17.8083 10.6043 18.6912 10.6043C19.5741 10.6043 20.3267 10.9096 20.9489 11.52Z" fill="#1A3B66"/>
<path d="M15.5 0C19.601 0 23.2094 1.36402 26.3256 4.09194C29.4417 6.81989 31 10.4828 31 15.0805C30.9999 18.1455 29.716 21.4784 27.1489 25.0798C24.8696 28.2774 21.5536 31.711 17.1998 35.3797C16.2183 36.2068 14.7817 36.2068 13.8002 35.3797C9.44641 31.711 6.13036 28.2774 3.8511 25.0798C1.28403 21.4784 9.58938e-05 18.1455 0 15.0805C0 10.4828 1.55828 6.81989 4.67443 4.09194C7.79058 1.364 11.399 1.18004e-05 15.5 0ZM15.4469 2.99776C8.62222 2.99776 3.08973 8.50766 3.08973 15.3044C3.0899 22.1011 8.62233 27.6111 15.4469 27.6111C22.2713 27.6109 27.8039 22.101 27.804 15.3044C27.804 8.50777 22.2714 2.99794 15.4469 2.99776Z" fill="#1A3B66"/>
</svg>
