<svg width="31" height="36" viewBox="0 0 31 36" fill="none" xmlns="http://www.w3.org/2000/svg">
<path d="M26.4412 15.3C26.4412 21.2647 21.5427 26.1 15.5 26.1C9.4574 26.1 4.55887 21.2647 4.55887 15.3C4.55887 9.33531 9.4574 4.49998 15.5 4.49998C21.5427 4.49998 26.4412 9.33531 26.4412 15.3Z" fill="white"/>
<path d="M14.1053 21.1V17.74L11.1964 19.42C10.8643 19.6067 10.5123 19.6533 10.1404 19.56C9.7685 19.4667 9.48956 19.2467 9.3036 18.9C9.11765 18.5667 9.07116 18.2133 9.16414 17.84C9.25712 17.4667 9.46964 17.1867 9.80171 17L12.7106 15.3L9.80171 13.62C9.46964 13.4333 9.25712 13.15 9.16414 12.77C9.07116 12.39 9.11765 12.0333 9.3036 11.7C9.48956 11.3667 9.7685 11.1533 10.1404 11.06C10.5123 10.9667 10.8643 11.0133 11.1964 11.2L14.1053 12.88V9.5C14.1053 9.11333 14.2415 8.78333 14.5138 8.51C14.7861 8.23667 15.1148 8.1 15.5 8.1C15.8852 8.1 16.2139 8.23667 16.4862 8.51C16.7585 8.78333 16.8947 9.11333 16.8947 9.5V12.88L19.8036 11.2C20.1357 11.0133 20.4877 10.9667 20.8596 11.06C21.2315 11.1533 21.5104 11.3667 21.6964 11.7C21.8824 12.0333 21.9255 12.39 21.8259 12.77C21.7263 13.15 21.5104 13.4333 21.1784 13.62L18.2894 15.3L21.1983 17C21.5304 17.1867 21.7429 17.4667 21.8359 17.84C21.9288 18.2133 21.8824 18.5733 21.6964 18.92C21.5104 19.2533 21.2315 19.4667 20.8596 19.56C20.4877 19.6533 20.1357 19.6067 19.8036 19.42L16.8947 17.74V21.1C16.8947 21.4867 16.7585 21.8167 16.4862 22.09C16.2139 22.3633 15.8852 22.5 15.5 22.5C15.1148 22.5 14.7861 22.3633 14.5138 22.09C14.2415 21.8167 14.1053 21.4867 14.1053 21.1Z" fill="#EF4444"/>
<path d="M15.5 0C19.601 0 23.2094 1.36402 26.3256 4.09194C29.4417 6.81989 31 10.4828 31 15.0805C30.9999 18.1455 29.716 21.4784 27.1489 25.0798C24.8696 28.2774 21.5536 31.711 17.1998 35.3797C16.2183 36.2068 14.7817 36.2068 13.8002 35.3797C9.44641 31.711 6.13036 28.2774 3.8511 25.0798C1.28403 21.4784 9.58938e-05 18.1455 0 15.0805C0 10.4828 1.55828 6.81989 4.67443 4.09194C7.79058 1.364 11.399 1.18004e-05 15.5 0ZM15.4469 2.99776C8.62222 2.99776 3.08973 8.50766 3.08973 15.3044C3.0899 22.1011 8.62233 27.6111 15.4469 27.6111C22.2713 27.611 27.8039 22.101 27.804 15.3044C27.804 8.50777 22.2714 2.99794 15.4469 2.99776Z" fill="#1A3B66"/>
</svg>
