<svg width="31" height="36" viewBox="0 0 31 36" fill="none" xmlns="http://www.w3.org/2000/svg">
<path d="M26.4412 15.3C26.4412 21.2647 21.5427 26.1 15.5 26.1C9.4574 26.1 4.55887 21.2647 4.55887 15.3C4.55887 9.33531 9.4574 4.49998 15.5 4.49998C21.5427 4.49998 26.4412 9.33531 26.4412 15.3Z" fill="white"/>
<path d="M15.5 0C19.601 0 23.2094 1.36402 26.3256 4.09194C29.4417 6.81989 31 10.4828 31 15.0805C30.9999 18.1455 29.716 21.4784 27.1489 25.0798C24.8696 28.2774 21.5536 31.711 17.1998 35.3797C16.2183 36.2068 14.7817 36.2068 13.8002 35.3797C9.44641 31.711 6.13036 28.2774 3.8511 25.0798C1.28403 21.4784 9.58938e-05 18.1455 0 15.0805C0 10.4828 1.55828 6.81989 4.67443 4.09194C7.79058 1.364 11.399 1.18004e-05 15.5 0ZM15.4469 2.99776C8.62222 2.99776 3.08973 8.50766 3.08973 15.3044C3.0899 22.1011 8.62233 27.6111 15.4469 27.6111C22.2713 27.611 27.8039 22.101 27.804 15.3044C27.804 8.50777 22.2714 2.99794 15.4469 2.99776Z" fill="#1A3B66"/>
<path d="M9.11765 20.1645V13.2562C9.11765 12.9572 9.20038 12.685 9.36585 12.4398C9.53132 12.1946 9.74997 12.0181 10.0218 11.9105L17.3792 9.05742C17.6156 8.96172 17.8343 8.98564 18.0352 9.12919C18.2361 9.27274 18.3366 9.47012 18.3366 9.72133V15.1403H19.0458C19.0458 14.7455 19.1846 14.4076 19.4624 14.1265C19.7401 13.8454 20.074 13.7048 20.4641 13.7048C20.8541 13.7048 21.188 13.8454 21.4657 14.1265C21.7435 14.4076 21.8824 14.7455 21.8824 15.1403V20.1645C21.8824 20.5593 21.7435 20.8972 21.4657 21.1783C21.188 21.4594 20.8541 21.6 20.4641 21.6H10.5359C10.1459 21.6 9.81202 21.4594 9.53427 21.1783C9.25652 20.8972 9.11765 20.5593 9.11765 20.1645ZM10.5359 20.1645H13.3725V16.5758C13.3725 16.181 13.5114 15.8431 13.7892 15.562C14.0669 15.2809 14.4008 15.1403 14.7909 15.1403H16.9183V10.7621L10.5359 13.2562V20.1645ZM14.7909 20.1645H16.9183V18.729C16.9183 18.5257 16.9863 18.3552 17.1222 18.2176C17.2581 18.0801 17.4265 18.0113 17.6275 18.0113C17.8284 18.0113 17.9968 18.0801 18.1327 18.2176C18.2686 18.3552 18.3366 18.5257 18.3366 18.729V20.1645H20.4641V16.5758H14.7909V20.1645Z" fill="#3D8D80"/>
</svg>
